<?xml version="1.0" encoding="utf-8"?>
<!-- Generator: Adobe Illustrator 21.1.0, SVG Export Plug-In . SVG Version: 6.00 Build 0)  -->
<svg version="1.1" id="Layer_1" xmlns="http://www.w3.org/2000/svg" xmlns:xlink="http://www.w3.org/1999/xlink" x="0px" y="0px"
	 viewBox="0 0 217.6 66.3" style="enable-background:new 0 0 217.6 66.3;" xml:space="preserve">
<style type="text/css">
	.st0{fill:#FFFFFF;}
	.st1{fill:#323031;}
</style>
<g>
	<path class="st0" d="M98.1,42.8H83.3l-2,4.4h-6.2l13-28.1h5.2l13,28.1h-6.2L98.1,42.8z M85.9,37.1h9.6l-4.8-10.4L85.9,37.1z"/>
	<path class="st0" d="M119.5,26.6c0.7,0,1.3,0.1,2,0.3v5.7c-0.7-0.2-1.6-0.3-2.4-0.3c-3.5,0-5.1,2-5.1,5.8v9.1h-5.3V27.1h5.1v3.3
		C114.9,28,116.7,26.6,119.5,26.6"/>
	<path class="st0" d="M126.9,17.9c1.9,0,3.4,1.5,3.4,3.4c0,1.9-1.5,3.4-3.4,3.4c-1.9,0-3.4-1.4-3.4-3.4
		C123.5,19.4,125,17.9,126.9,17.9 M129.6,47.2h-5.3V27.1h5.3V47.2z"/>
	<polygon class="st0" points="150.3,27.1 150.3,31.2 140.1,42.3 150.6,42.3 150.6,47.2 132.9,47.2 132.9,43 143,32 133.6,32 
		133.6,27.1 	"/>
	<path class="st0" d="M163.2,26.6c6.2,0,10.8,4.3,10.8,10.5s-4.6,10.5-10.8,10.5c-6.2,0-10.8-4.3-10.8-10.5S157,26.6,163.2,26.6
		 M163.2,31.8c-3,0-5.3,2.1-5.3,5.3c0,3.2,2.3,5.3,5.3,5.3c3,0,5.3-2.1,5.3-5.3C168.6,33.9,166.2,31.8,163.2,31.8"/>
	<path class="st0" d="M188.9,26.6c4.7,0,7.1,3.1,7.1,8.1v12.5h-5.4V36c0-3-1.4-4.3-3.7-4.3c-3.1,0-4.4,2.3-4.4,5.9v9.6h-5.3V27.1
		h5.1V30C183.7,28,185.9,26.6,188.9,26.6"/>
	<path class="st0" d="M208.8,26.6c5.9,0,8.8,2.6,8.8,8.2v12.4h-5.3v-2.7c-1,1.6-3.1,3.1-6.2,3.1c-4,0-6.8-2.6-6.8-6.3
		c0-3.7,2.7-6,6.4-6.3l5.5-0.5c0.8-0.1,1-0.3,1-0.8v-0.3c0-1.2-1.1-2-3.5-2c-2.1,0-4.3,0.6-5,2.6l-3.9-2.8
		C201.2,28.2,204.4,26.6,208.8,26.6 M212.3,38.2l-5,0.6c-1.6,0.2-2.5,1.1-2.5,2.2c0,1.3,1,2.1,2.9,2.1c2.8,0,4.6-1.9,4.6-4.1V38.2z"
		/>
	<rect y="0" class="st0" width="66.3" height="66.3"/>
	<path class="st1" d="M28.2,26c-0.4,0.2-0.5,0.4-0.6,0.7c-0.1,0.2-3.1,13.1-3.2,13.3c-0.1,0.3-0.1,0.5,0.3,0.7
		c0.3,0.1,2.1,0.8,2.2,0.8c0.1,0.1,0.1,0.1,0,0.1h-7.5c-0.1,0-0.2,0-0.1-0.1c0.2-0.1,1.8-0.7,2-0.7c0.2-0.1,0.6-0.2,0.7-0.6
		c0.1-0.3,3.2-13.2,3.3-13.4c0.1-0.3,0-0.6-0.3-0.8c-0.2-0.1-2.1-0.7-2.2-0.8c-0.1,0-0.1-0.1,0-0.1h7.8c0.1,0,0.2,0.1,0.1,0.1
		c-0.1,0-1.4,0.4-1.5,0.4C28.9,25.7,28.4,25.9,28.2,26"/>
	<path class="st1" d="M43.3,40.6c-0.2,0.1-2.8,1.1-5.4,1.2c-6.5,0.2-8.9-4.4-7.8-8.5c0.6-2.2,2-4.2,3.8-5.6c1-0.8,4.1-2.7,8.1-2.7
		c0.8,0,2.7,0.1,4.1,0.5c0.7,0.2,0.6,0.6,0.5,0.8c0,0.1-1.6,4.7-1.6,4.8c-0.1,0.2-0.2,0.2-0.2,0c0-0.1,0.2-4.2,0.2-4.3
		c0-0.4,0-0.7-0.5-0.8c-0.7-0.2-3.9-0.5-6.2,0.6c-3.9,1.8-6.2,6.1-5.8,9.5c0.4,2.8,2.6,5.1,6.1,5.2c1.1,0,1.9-0.1,2.2-0.2
		c0.3-0.1,0.4-0.2,0.5-0.4c0.1-0.2,0.7-2.7,0.7-2.8c0-0.1,0.2-0.5-0.2-0.6c-0.4-0.1-3.6-1-3.7-1c-0.2,0-0.1-0.1,0-0.1h6
		c0.2,0,0.9-0.1,0.7,0.5c-0.2,0.6-1.1,3.5-1.2,3.7C43.7,40.4,43.5,40.5,43.3,40.6"/>
	<path class="st1" d="M14.5,33.5c0,0.3-0.1,0.5-0.7,0.5c-0.5,0-3.9,0-3.9,0c-0.6,0-0.6-0.3-0.4-0.6c0.2-0.3,4.3-4.7,4.5-4.9
		c0.3-0.3,0.6-0.3,0.6,0.1C14.6,29.1,14.5,33.2,14.5,33.5 M19.1,41.5c-0.2-0.1-1.6-0.7-2-0.9c-0.4-0.2-0.4-0.5-0.5-0.8
		c0-0.2,0.2-15.1,0.2-15.2c0-0.1-0.1-0.1-0.2,0C16.3,24.8,1.9,40.5,1.7,40.7c-0.5,0.4-1.5,0.7-1.6,0.8c0,0,0,0-0.1,0v0.1
		c0,0,0.1,0,0.1,0h7.6c0.1,0,0.1-0.1,0-0.1c-0.6-0.1-3-0.6-3.4-0.7c-0.4-0.1-0.5-0.4-0.3-0.6c0.1-0.2,4-5,4.3-5.2
		c0.3-0.3,0.5-0.3,1.1-0.3c0.2,0,1.3,0,2.5,0c0.9,0,1.8,0.1,2.1,0.1c0.6,0,0.5,0.5,0.5,0.7c0,0.2-0.2,3.7-0.2,4.3
		c0,0.6-0.1,0.7-0.5,0.8c-0.2,0.1-2.8,0.9-2.9,0.9c-0.1,0,0,0.1,0,0.1L19.1,41.5C19.1,41.6,19.1,41.5,19.1,41.5"/>
	<path class="st1" d="M58.6,33.5c0,0.3-0.2,0.5-0.7,0.5c-0.5,0-3.9,0-3.9,0c-0.6,0-0.6-0.3-0.4-0.6c0.2-0.3,4.3-4.7,4.5-4.9
		c0.3-0.3,0.6-0.3,0.6,0.1C58.7,29.1,58.6,33.2,58.6,33.5 M63.2,41.5c-0.2-0.1-1.6-0.7-2-0.9c-0.4-0.2-0.4-0.5-0.5-0.8
		c0-0.2,0.2-15.1,0.2-15.2c0-0.1-0.1-0.1-0.2,0C60.4,24.8,46,40.5,45.8,40.7c-0.5,0.4-1.5,0.8-1.6,0.8c-0.1,0-0.1,0.1,0,0.1h7.6
		c0.1,0,0.1-0.1,0-0.1c-0.6-0.1-3-0.6-3.4-0.7c-0.4-0.1-0.5-0.4-0.3-0.6c0.2-0.2,4-5,4.3-5.2c0.4-0.3,0.5-0.3,1.1-0.3
		c0.2,0,1.3,0,2.4,0c0.9,0,1.8,0.1,2.1,0.1c0.6,0,0.5,0.5,0.5,0.7c0,0.2-0.2,3.7-0.2,4.3c0,0.6-0.1,0.7-0.5,0.8
		c-0.2,0.1-2.8,0.9-2.9,0.9c-0.1,0,0,0.1,0,0.1L63.2,41.5C63.2,41.6,63.2,41.5,63.2,41.5"/>
</g>
</svg>
