<svg xmlns="http://www.w3.org/2000/svg" viewBox="0 0 192 58.5"><defs><style>.cls-1{fill:#fff;}.cls-2{fill:#fdc110;}</style></defs><title>Asset 2</title><g id="Layer_2" data-name="Layer 2"><g id="Layer_1-2" data-name="Layer 1"><path class="cls-1" d="M86.56,37.76H73.5l-1.76,3.89H66.26l11.48-24.8h4.58l11.47,24.8H88.32Zm-10.77-5h8.47L80,23.56Z"/><path class="cls-1" d="M105.44,23.47a6,6,0,0,1,1.77.27v5a8.55,8.55,0,0,0-2.12-.26c-3.09,0-4.5,1.76-4.5,5.12v8H95.91V23.91h4.5v2.91a5.19,5.19,0,0,1,5-3.35"/><path class="cls-1" d="M112,15.79a3,3,0,0,1,0,6,2.92,2.92,0,0,1-3-3,3,3,0,0,1,3-3m2.38,25.86h-4.67V23.91h4.67Z"/><polygon class="cls-1" points="132.62 23.91 132.62 27.53 123.62 37.32 132.88 37.32 132.88 41.65 117.27 41.65 117.27 37.94 126.18 28.23 117.88 28.23 117.88 23.91 132.62 23.91"/><path class="cls-1" d="M144,23.47c5.47,0,9.53,3.79,9.53,9.27S149.47,42,144,42s-9.53-3.79-9.53-9.26,4.06-9.27,9.53-9.27m0,4.59a4.49,4.49,0,0,0-4.68,4.68,4.68,4.68,0,0,0,9.36,0A4.45,4.45,0,0,0,144,28.06"/><path class="cls-1" d="M166.68,23.47c4.14,0,6.26,2.74,6.26,7.15v11h-4.76V31.76c0-2.64-1.24-3.79-3.27-3.79-2.73,0-3.88,2-3.88,5.21v8.47h-4.68V23.91h4.5v2.56a6.88,6.88,0,0,1,5.83-3"/><path class="cls-1" d="M184.24,23.47c5.2,0,7.76,2.29,7.76,7.24V41.65h-4.68V39.26A6.25,6.25,0,0,1,181.85,42c-3.53,0-6-2.29-6-5.56s2.39-5.29,5.65-5.56l4.85-.44c.71-.09.89-.26.89-.7v-.27c0-1.06-1-1.76-3.09-1.76-1.86,0-3.8.53-4.41,2.29l-3.45-2.47c1.24-2.65,4.06-4.06,8-4.06m3.08,10.24-4.41.53c-1.41.17-2.2,1-2.2,1.94,0,1.14.88,1.85,2.55,1.85a3.75,3.75,0,0,0,4.06-3.62Z"/><rect class="cls-2" width="58.5" height="58.5"/><path class="cls-1" d="M24.88,22.94a.91.91,0,0,0-.53.62c-.09.18-2.73,11.56-2.82,11.73s-.09.45.26.62,1.86.71,1.95.71.08.09,0,.09H17.12c-.09,0-.18,0-.09-.09A14.24,14.24,0,0,1,18.79,36c.18-.09.53-.18.62-.53s2.83-11.65,2.91-11.82a.6.6,0,0,0-.26-.71c-.18-.09-1.85-.62-1.94-.7s-.09-.09,0-.09H27c.09,0,.18.09.09.09s-1.24.35-1.33.35c-.26.09-.7.26-.88.35"/><path class="cls-1" d="M38.21,35.82a15.67,15.67,0,0,1-4.77,1.06c-5.73.18-7.85-3.88-6.88-7.5a9.59,9.59,0,0,1,3.35-4.94,12.26,12.26,0,0,1,7.15-2.38,15.54,15.54,0,0,1,3.62.44c.61.18.53.53.44.71s-1.41,4.14-1.41,4.23-.18.18-.18,0,.18-3.7.18-3.79c0-.36,0-.62-.45-.71a9.76,9.76,0,0,0-5.47.53c-3.44,1.59-5.47,5.38-5.11,8.38a5.31,5.31,0,0,0,5.38,4.59A7.6,7.6,0,0,0,36,36.26a.6.6,0,0,0,.44-.35c.09-.17.62-2.38.62-2.47s.18-.44-.18-.53S33.71,32,33.62,32s-.09-.09,0-.09h5.29c.18,0,.8-.09.62.44s-1,3.09-1.06,3.27c.09,0-.09.09-.26.17"/><path class="cls-1" d="M12.79,29.56c0,.26-.08.44-.61.44H8.74c-.53,0-.53-.26-.36-.53s3.8-4.15,4-4.32.53-.27.53.09-.09,4.05-.09,4.32m4.06,7.06c-.17-.09-1.41-.62-1.76-.8s-.35-.44-.44-.7.17-13.33.17-13.41-.08-.09-.17,0c-.27.17-13,14-13.15,14.2a10.66,10.66,0,0,1-1.41.71H0v.09H6.79c.09,0,.09-.09,0-.09-.53-.09-2.64-.53-3-.62s-.44-.35-.26-.53,3.53-4.41,3.79-4.59.44-.26,1-.26H10.5c.79,0,1.59.09,1.85.09.53,0,.44.44.44.61s-.17,3.27-.17,3.8-.09.62-.44.7c-.18.09-2.47.8-2.56.8s0,.09,0,.09l7.23-.09h0"/><path class="cls-1" d="M51.71,29.56c0,.26-.18.44-.62.44H47.65c-.53,0-.53-.26-.36-.53s3.8-4.15,4-4.32.53-.27.53.09-.08,4.05-.08,4.32m4,7.06c-.17-.09-1.41-.62-1.76-.8s-.35-.44-.44-.7.18-13.33.18-13.41-.09-.09-.18,0c-.27.17-13,14-13.15,14.2a5.12,5.12,0,0,1-1.41.71c-.09,0-.09.09,0,.09h6.71c.08,0,.08-.09,0-.09-.53-.09-2.65-.53-3-.62s-.45-.35-.27-.53,3.53-4.41,3.8-4.59a1.18,1.18,0,0,1,1-.26h2.11c.8,0,1.59.09,1.86.09.53,0,.44.44.44.61s-.18,3.27-.18,3.8-.09.62-.44.7c-.18.09-2.47.8-2.56.8s0,.09,0,.09l7.32-.09h0"/></g></g></svg>